<svg width="97" height="24" viewBox="0 0 97 24" fill="none" xmlns="http://www.w3.org/2000/svg">
<path d="M14.9453 1.25C13.5778 1.24998 12.4754 1.24996 11.6085 1.36652C10.7084 1.48754 9.95048 1.74643 9.34857 2.34835C8.82363 2.87328 8.55839 3.51836 8.41916 4.27635C8.28387 5.01291 8.25799 5.9143 8.25196 6.99583C8.24966 7.41003 8.58357 7.74768 8.99778 7.74999C9.41199 7.7523 9.74964 7.41838 9.75194 7.00418C9.75803 5.91068 9.78643 5.1356 9.89448 4.54735C9.99859 3.98054 10.1658 3.65246 10.4092 3.40901C10.686 3.13225 11.0746 2.9518 11.8083 2.85315C12.5637 2.75159 13.5648 2.75 15.0002 2.75H16.0002C17.4356 2.75 18.4367 2.75159 19.1921 2.85315C19.9259 2.9518 20.3144 3.13225 20.5912 3.40901C20.868 3.68577 21.0484 4.07435 21.1471 4.80812C21.2486 5.56347 21.2502 6.56459 21.2502 8V16C21.2502 17.4354 21.2486 18.4365 21.1471 19.1919C21.0484 19.9257 20.868 20.3142 20.5912 20.591C20.3144 20.8678 19.9259 21.0482 19.1921 21.1469C18.4367 21.2484 17.4356 21.25 16.0002 21.25H15.0002C13.5648 21.25 12.5637 21.2484 11.8083 21.1469C11.0746 21.0482 10.686 20.8678 10.4092 20.591C10.1658 20.3475 9.99859 20.0195 9.89448 19.4527C9.78643 18.8644 9.75803 18.0893 9.75194 16.9958C9.74964 16.5816 9.41199 16.2477 8.99778 16.25C8.58357 16.2523 8.24966 16.59 8.25196 17.0042C8.25799 18.0857 8.28387 18.9871 8.41916 19.7236C8.55839 20.4816 8.82363 21.1267 9.34857 21.6517C9.95048 22.2536 10.7084 22.5125 11.6085 22.6335C12.4754 22.75 13.5778 22.75 14.9453 22.75H16.0551C17.4227 22.75 18.525 22.75 19.392 22.6335C20.2921 22.5125 21.0499 22.2536 21.6519 21.6517C22.2538 21.0497 22.5127 20.2919 22.6337 19.3918C22.7503 18.5248 22.7502 17.4225 22.7502 16.0549V7.94513C22.7502 6.57754 22.7503 5.47522 22.6337 4.60825C22.5127 3.70814 22.2538 2.95027 21.6519 2.34835C21.0499 1.74643 20.2921 1.48754 19.392 1.36652C18.525 1.24996 17.4227 1.24998 16.0551 1.25H14.9453Z" fill="#1D1D1D"/>
<path d="M15 11.25C15.4142 11.25 15.75 11.5858 15.75 12C15.75 12.4142 15.4142 12.75 15 12.75H4.02744L5.98809 14.4306C6.30259 14.7001 6.33901 15.1736 6.06944 15.4881C5.79988 15.8026 5.3264 15.839 5.01191 15.5694L1.51191 12.5694C1.34567 12.427 1.25 12.2189 1.25 12C1.25 11.7811 1.34567 11.573 1.51191 11.4306L5.01191 8.43056C5.3264 8.16099 5.79988 8.19741 6.06944 8.51191C6.33901 8.8264 6.30259 9.29988 5.98809 9.56944L4.02744 11.25H15Z" fill="#1D1D1D"/>
<path d="M36.14 17.46C34.664 17.46 33.512 17.1 32.702 16.65V15.444C33.62 15.912 34.808 16.236 36.086 16.236C37.94 16.236 38.75 15.372 38.75 14.058C38.75 12.816 38.156 12.312 36.698 11.844L35.528 11.43C33.836 10.872 32.882 10.008 32.882 8.172C32.882 6.3 34.124 4.968 36.644 4.968C38.066 4.968 38.912 5.31 39.578 5.634V6.84C38.876 6.516 37.922 6.174 36.59 6.174C35.114 6.174 34.286 6.894 34.286 8.046C34.286 9.198 34.718 9.702 36.086 10.17L37.274 10.548C39.056 11.16 40.19 11.916 40.19 13.95C40.19 16.056 38.966 17.46 36.14 17.46ZM42.4383 17.244V8.334H43.8063V17.244H42.4383ZM42.4203 6.534V5.094H43.8243V6.534H42.4203ZM49.5764 19.89C46.8584 19.89 45.5804 19.098 45.5804 17.802C45.5804 16.848 46.3544 16.29 47.2724 15.984V15.894C46.7684 15.75 46.3724 15.372 46.3724 14.778C46.3724 14.22 46.6964 13.806 47.3804 13.302C46.6964 12.852 46.2644 12.132 46.2644 11.07V11.034C46.2644 9.18 47.6684 8.154 49.6304 8.154C50.0804 8.154 50.4944 8.208 50.8904 8.298H53.9144V9.36H52.3124C52.7264 9.756 52.9604 10.296 52.9604 10.998V11.016C52.9604 12.924 51.4844 13.878 49.6124 13.878C49.0544 13.878 48.5504 13.788 48.0824 13.626C47.8484 13.842 47.6684 14.058 47.6684 14.346C47.6684 14.832 47.9564 15.012 48.5504 15.012H51.0164C52.6364 15.012 53.8424 15.498 53.8424 17.154C53.8424 18.684 52.6184 19.89 49.5764 19.89ZM49.5404 18.81C51.6464 18.81 52.4024 18.27 52.4024 17.334C52.4024 16.506 51.9704 16.236 50.8004 16.236H48.2264C47.5424 16.47 47.0204 16.866 47.0204 17.622C47.0204 18.414 47.7764 18.81 49.5404 18.81ZM49.6124 12.798C50.8544 12.798 51.5744 12.222 51.5744 11.07V10.98C51.5744 9.756 50.8184 9.198 49.6124 9.198C48.3884 9.198 47.6324 9.846 47.6324 10.962V11.052C47.6324 12.222 48.4244 12.798 49.6124 12.798ZM55.5679 17.244V8.316H56.8819V9.09H56.9539C57.7819 8.55 58.9339 8.154 60.0319 8.154C61.7779 8.154 62.6239 8.856 62.6239 10.584V17.244H61.2559V10.872C61.2559 9.792 60.8779 9.342 59.4559 9.342C58.6099 9.342 57.6739 9.648 56.9359 9.99V17.244H55.5679ZM74.7708 17.442C71.4948 17.442 69.4968 15.3 69.4968 11.34V11.052C69.4968 7.254 71.4948 4.968 74.8248 4.968C78.0828 4.968 80.0808 7.11 80.0808 11.07V11.358C80.0808 15.156 78.0828 17.442 74.7708 17.442ZM74.8068 16.272C77.3088 16.272 78.5508 14.31 78.5508 11.628V11.07C78.5508 8.136 77.4888 6.156 74.7528 6.138C72.2688 6.138 71.0268 8.082 71.0268 10.782V11.34C71.0268 14.256 72.1068 16.272 74.8068 16.272ZM84.9335 17.406C83.1875 17.406 82.1975 16.524 82.1975 14.796V8.316H83.5835V14.598C83.5835 15.75 83.9975 16.218 85.3115 16.218C86.2655 16.218 87.0575 15.876 87.7955 15.516V8.316H89.1635V17.244H87.9755L87.8495 16.434H87.7775C86.9675 16.992 86.0135 17.406 84.9335 17.406ZM94.6224 17.352C93.2184 17.352 92.3004 16.74 92.3004 15.228V9.468H91.0224V8.334H92.3004V6.21H93.6684V8.334H95.9544V9.468H93.6684V15.012C93.6684 15.876 93.9564 16.218 94.9824 16.218C95.3604 16.218 95.7744 16.164 96.1344 16.056V16.992C95.7744 17.154 95.3964 17.352 94.6224 17.352Z" fill="#2D2D2D"/>
</svg>
